<svg width="428" height="216" viewBox="0 0 428 216" fill="none" xmlns="http://www.w3.org/2000/svg">
<path d="M0 0H428V64.96C428 109.143 392.183 144.96 348 144.96H85.5C85.5 144.96 50.5 144.96 31.5 159.84C12.5 174.72 0 216 0 216V0Z" fill="#1281FF"/>
<path d="M101.706 132.204C43.2965 136.694 1 120.729 1 120.729V20.9531H73.5082L112.28 51.8838L293.551 0H429V39.9106C429 39.9106 379.654 28.9352 352.464 60.8636C325.273 92.7921 274.92 103.269 230.609 85.3089C186.299 67.3491 160.115 127.714 101.706 132.204Z" fill="#3D97FD" stroke="#3386E6"/>
<path d="M46.5 33C1 33 0.5 45 0.5 45V0.5H301.5C301.5 0.5 291.5 43 227.5 33C163.5 23 153 72.5 136 87C119 101.5 98 93 79 72.5C60 52 92 33 46.5 33Z" fill="#4FA1FF" stroke="#3386E6"/>
</svg>
