<svg width="25" height="24" viewBox="0 0 25 24" fill="none" xmlns="http://www.w3.org/2000/svg">
<path d="M21.0605 18.4395L17.2528 14.6318C18.0395 13.446 18.5 12.0262 18.5 10.5C18.5 6.3645 15.1355 3 11 3C6.8645 3 3.5 6.3645 3.5 10.5C3.5 14.6355 6.8645 18 11 18C12.5262 18 13.946 17.5395 15.1318 16.7528L18.9395 20.5605C19.5245 21.1462 20.4755 21.1462 21.0605 20.5605C21.6462 19.9748 21.6462 19.0252 21.0605 18.4395ZM5.75 10.5C5.75 7.605 8.105 5.25 11 5.25C13.895 5.25 16.25 7.605 16.25 10.5C16.25 13.395 13.895 15.75 11 15.75C8.105 15.75 5.75 13.395 5.75 10.5Z" fill="#696969"/>
</svg>
